<svg xmlns="http://www.w3.org/2000/svg" width="17" height="19" viewBox="0 0 17 19">
    <path fill="#676767" fill-rule="evenodd" d="M12.75 16.913h2.942v-2.927H12.75v2.927zm0-3.578h2.942v-3.252H12.75v3.252zm0-3.903h2.942V6.505H12.75v2.927zm.327-7.806a.337.337 0 0 0-.327-.325h-.654a.337.337 0 0 0-.327.325v2.928c0 .171.155.325.327.325h.654a.337.337 0 0 0 .327-.325V1.626zm-4.25 15.287h3.27v-2.927h-3.27v2.927zm0-3.578h3.27v-3.252h-3.27v3.252zm0-3.903h3.27V6.505h-3.27v2.927zm-3.923 7.481h3.27v-2.927h-3.27v2.927zm0-3.578h3.27v-3.252h-3.27v3.252zm0-3.903h3.27V6.505h-3.27v2.927zm.327-7.806a.337.337 0 0 0-.327-.325H4.25a.337.337 0 0 0-.327.325v2.928c0 .171.154.325.327.325h.654a.337.337 0 0 0 .327-.325V1.626zM1.308 16.913H4.25v-2.927H1.308v2.927zm0-3.578H4.25v-3.252H1.308v3.252zm0-3.903H4.25V6.505H1.308v2.927zM17 16.913c0 .71-.594 1.301-1.308 1.301H1.308c-.714 0-1.308-.59-1.308-1.3V3.903c0-.711.594-1.302 1.308-1.302h1.307v-.976C2.615.731 3.35 0 4.25 0h.654c.9 0 1.634.731 1.634 1.626v.976h3.924v-.976c0-.895.734-1.626 1.634-1.626h.654c.9 0 1.635.731 1.635 1.626v.976h1.307c.714 0 1.308.59 1.308 1.301v13.01z"/>
</svg>
